HIERARCHY
ROOT Hips
{
	OFFSET 0.000000 0.000000 0.000000
	CHANNELS 6 Xposition Yposition Zposition Zrotation Yrotation Xrotation 
	JOINT LHipJoint
	{
		OFFSET 0.000000 0.000000 0.000000
		CHANNELS 3 Zrotation Yrotation Xrotation
		JOINT LeftUpLeg
		{
			OFFSET 1.363060 -1.794630 0.839290
			CHANNELS 3 Zrotation Yrotation Xrotation
			JOINT LeftLeg
			{
				OFFSET 2.448110 -6.726130 0.000000
				CHANNELS 3 Zrotation Yrotation Xrotation
				JOINT LeftFoot
				{
					OFFSET 2.562200 -7.039590 0.000000
					CHANNELS 3 Zrotation Yrotation Xrotation
					JOINT LeftToeBase
					{
						OFFSET 0.157640 -0.433110 2.322550
						CHANNELS 3 Zrotation Yrotation Xrotation
						End Site
						{
							OFFSET 0.000000 0.000000 0.000000
						}
					}
				}
			}
		}
	}
	JOINT RHipJoint
	{
		OFFSET 0.000000 0.000000 0.000000
		CHANNELS 3 Zrotation Yrotation Xrotation
		JOINT RightUpLeg
		{
			OFFSET -1.305520 -1.794630 0.839290
			CHANNELS 3 Zrotation Yrotation Xrotation
			JOINT RightLeg
			{
				OFFSET -2.542530 -6.985550 0.000000
				CHANNELS 3 Zrotation Yrotation Xrotation
				JOINT RightFoot
				{
					OFFSET -2.568260 -7.056230 0.000000
					CHANNELS 3 Zrotation Yrotation Xrotation
					JOINT RightToeBase
					{
						OFFSET -0.164730 -0.452590 2.363150
						CHANNELS 3 Zrotation Yrotation Xrotation
						End Site
						{
							OFFSET 0.000000 0.000000 0.000000
						}
					}
				}
			}
		}
	}
}
MOTION
Frames: 25
Frame Time: 0.008333
-4.093850 15.885677 -0.937202 0.102275 81.732073 21.362851 -8.852072 -1.369816 -2.214937 -15.891893 2.032095 -59.908588 -1.616969 3.550266 49.683325 1.918102 7.944627 -11.918678 -0.409400 0.000000 -10.994100 10.853511 -1.046444 -5.355499 6.969592 -9.875370 -22.571237 1.121572 -4.290537 58.137371 0.696165 9.655338 -13.558637 -1.021300 0.000000 -68.000200
-3.961257 15.885184 -0.933239 0.136498 81.530071 21.280193 -8.874331 -1.343185 -2.296949 -15.978007 2.347355 -59.563836 -1.618815 3.588199 50.360541 1.987525 8.157974 -12.927039 -0.594800 0.000000 -11.687100 10.938481 -1.081270 -5.301493 6.634473 -9.891707 -22.620128 0.931773 -4.357727 58.901632 0.729184 9.737728 -12.013839 -0.830700 0.000001 -69.636800
-3.830066 15.886940 -0.929282 0.145036 81.356424 21.189095 -8.897525 -1.309740 -2.365123 -16.051839 2.630234 -59.168750 -1.629488 3.612211 50.878119 2.051268 8.341877 -13.869096 -0.775099 -0.000000 -12.436799 11.015712 -1.110941 -5.250606 6.336554 -9.912238 -22.684605 0.742449 -4.416510 59.622414 0.748618 9.788391 -10.404860 -0.612100 -0.000000 -71.078800
-3.700480 15.890515 -0.925588 0.118271 81.212512 21.075630 -8.922485 -1.272374 -2.419302 -16.100621 2.866275 -58.727631 -1.643301 3.624099 51.269211 2.109883 8.506902 -14.727329 -0.945700 0.000001 -13.128501 11.085048 -1.135306 -5.206682 6.075924 -9.942722 -22.752683 0.557908 -4.467325 60.300116 0.755563 9.822486 -8.768968 -0.374201 0.000000 -72.197599
-3.572522 15.895541 -0.922299 0.069521 81.095282 20.953378 -8.949499 -1.232441 -2.457666 -16.119892 3.042028 -58.252887 -1.655333 3.626006 51.567139 2.165351 8.669305 -15.491833 -1.104300 0.000000 -13.679100 11.147646 -1.153147 -5.171833 5.848465 -9.994293 -22.834504 0.378013 -4.511608 60.948930 0.750298 9.840560 -7.105868 -0.118501 0.000000 -72.998000
-3.446361 15.901737 -0.919427 0.011397 81.002382 20.834019 -8.978450 -1.191838 -2.480935 -16.108532 3.150688 -57.754308 -1.661821 3.620056 51.803610 2.219857 8.844503 -16.163194 -1.251300 -0.000000 -14.041700 11.204381 -1.163730 -5.148260 5.650440 -10.073195 -22.934507 0.203814 -4.550954 61.581216 0.732282 9.832235 -5.438593 0.149200 0.000000 -73.429900
-3.322372 15.908864 -0.916983 -0.049896 80.931636 20.721260 -9.008722 -1.153114 -2.492200 -16.067869 3.193175 -57.240154 -1.660489 3.608230 52.006006 2.275433 9.044591 -16.751320 -1.389400 -0.000000 -14.208100 11.255573 -1.166964 -5.137765 5.480071 -10.177719 -23.053292 0.038801 -4.587376 62.208894 0.701404 9.777878 -3.838825 0.413500 0.000000 -73.414700
-3.200642 15.916925 -0.914818 -0.092157 80.875652 20.639420 -9.039333 -1.116465 -2.492577 -16.007005 3.174730 -56.722699 -1.650972 3.592150 52.191113 2.334358 9.279842 -17.268907 -1.521700 0.000000 -14.209400 11.302521 -1.161706 -5.140029 5.332425 -10.311870 -23.209640 -0.118672 -4.622959 62.851655 0.656024 9.638365 -2.324974 0.663900 -0.000000 -73.026500
-3.081515 15.925893 -0.912836 -0.118031 80.828749 20.584710 -9.069152 -1.083529 -2.486869 -15.932452 3.109886 -56.207498 -1.634350 3.573049 52.369171 2.397616 9.552146 -17.734209 -1.652400 0.000000 -14.098600 11.345391 -1.148235 -5.155131 5.208193 -10.467478 -23.407611 -0.266585 -4.659877 63.521858 0.595713 9.369564 -0.977883 0.875500 0.000000 -72.241600
-2.965176 15.935830 -0.910872 -0.127008 80.782064 20.558317 -9.096993 -1.054519 -2.478643 -15.853431 3.016955 -55.701034 -1.613067 3.551755 52.540965 2.465625 9.858714 -18.164676 -1.784700 -0.000001 -13.938800 11.384753 -1.126269 -5.181701 5.107035 -10.638949 -23.659587 -0.405907 -4.700017 64.233361 0.518998 8.918892 0.154803 1.026300 -0.000000 -71.132101
-2.851781 15.946850 -0.908869 -0.130540 80.726213 20.548831 -9.121832 -1.029502 -2.471986 -15.777199 2.917564 -55.206227 -1.590288 3.528718 52.700733 2.537903 10.191684 -18.576357 -1.921200 0.000000 -13.791400 11.420834 -1.095734 -5.217915 5.030754 -10.816946 -23.973878 -0.537412 -4.744795 64.994955 0.424209 8.236707 1.022368 1.094700 -0.000000 -69.760100
-2.741411 15.959020 -0.906738 -0.147109 80.652191 20.537371 -9.142912 -1.008216 -2.470598 -15.709421 2.833597 -54.724011 -1.569350 3.504133 52.838733 2.613146 10.539316 -18.981602 -2.063300 0.000000 -13.706200 11.453667 -1.056575 -5.261503 4.982161 -10.991625 -24.356635 -0.661954 -4.795044 65.810125 0.308967 7.282868 1.584041 1.065699 -0.000000 -68.180100
-2.634067 15.972407 -0.904499 -0.198945 80.551565 20.501079 -9.159881 -0.990212 -2.477497 -15.652289 2.784661 -54.252880 -1.553265 3.477980 52.942959 2.689526 10.888408 -19.387775 -2.210900 0.000001 -13.716600 11.483050 -1.008681 -5.309995 4.964403 -11.152747 -24.810019 -0.780011 -4.850822 66.675601 0.170211 6.034784 1.811018 0.936700 0.000000 -66.422400
-2.529650 15.986999 -0.902192 -0.309331 80.418004 20.415790 -9.172856 -0.974850 -2.494896 -15.606015 2.786427 -53.790259 -1.544342 3.450266 53.002806 2.764811 11.225279 -19.797105 -2.362500 -0.000000 -13.836600 11.508510 -0.951936 -5.360875 4.980773 -11.291372 -25.333211 -0.891314 -4.911453 67.581065 0.004452 4.492988 1.688957 0.720200 -0.000000 -64.485500
-2.428007 16.002734 -0.899904 -0.496863 80.247361 20.261102 -9.182397 -0.961545 -2.523875 -15.567956 2.848831 -53.332870 -1.543892 3.421001 53.010119 2.836795 11.538406 -20.206717 -2.515200 0.000000 -14.060901 11.529362 -0.886412 -5.411765 5.033951 -11.400444 -25.921247 -0.994758 -4.975600 68.509608 -0.191477 2.684405 1.219772 0.444301 0.000000 -62.333000
-2.328921 16.019466 -0.897734 -0.769114 80.038793 20.027998 -9.189401 -0.949745 -2.564588 -15.534638 2.975134 -52.877250 -1.552194 3.390299 52.961324 2.903483 11.819100 -20.610137 -2.665700 0.000000 -14.367700 11.544883 -0.812401 -5.460606 5.124593 -11.475823 -26.566994 -1.088355 -5.041577 69.438811 -0.419041 0.663728 0.422245 0.149400 0.000000 -59.910500
-2.232131 16.037016 -0.895785 -1.127802 79.794215 19.713321 -9.194997 -0.939079 -2.616230 -15.501345 3.162569 -52.421509 -1.568484 3.358538 52.858368 2.963346 12.062479 -20.998724 -2.810100 -0.000000 -14.723500 11.554355 -0.730642 -5.505681 5.252114 -11.516128 -27.261518 -1.169666 -5.107497 70.343254 -0.676536 -1.490197 -0.667111 -0.117900 0.000000 -57.160600
-2.137346 16.055137 -0.894119 -1.563909 79.518401 19.325121 -9.200349 -0.929206 -2.677152 -15.463485 3.402797 -51.964789 -1.591234 3.326227 52.707426 3.015617 12.268343 -21.363461 -2.945099 0.000000 -15.089300 11.557198 -0.642320 -5.545536 5.414110 -11.522458 -27.995423 -1.236230 -5.171449 71.196141 -0.957803 -3.680782 -1.994025 -0.314100 0.000000 -54.052601
-2.044313 16.073596 -0.892756 -2.061759 79.218173 18.877887 -9.206504 -0.919822 -2.745231 -15.417299 3.683417 -51.506946 -1.618359 3.293994 52.518461 3.060321 12.440811 -21.696662 -3.068400 -0.000000 -15.428100 11.553087 -0.548954 -5.579067 5.606153 -11.498047 -28.759554 -1.286093 -5.231713 71.971832 -1.251756 -5.803001 -3.487230 -0.407600 0.000000 -50.622699
-1.952792 16.092142 -0.891686 -2.603616 78.902068 18.389244 -9.214213 -0.910727 -2.818001 -15.359885 3.989341 -51.050046 -1.647554 3.262618 52.304218 3.098222 12.586996 -21.993581 -3.179200 -0.000000 -15.712500 11.541900 -0.452248 -5.605787 5.823477 -11.448296 -29.546720 -1.318077 -5.286915 72.648628 -1.543140 -7.754172 -5.064557 -0.386300 0.000000 -46.966600
-1.862508 16.110552 -0.890843 -3.173399 78.579031 17.876003 -9.223950 -0.901761 -2.893009 -15.289116 4.305308 -50.596552 -1.676614 3.232823 52.077558 3.130734 12.716384 -22.252716 -3.278200 0.000000 -15.926099 11.523663 -0.353846 -5.625308 6.061369 -11.377987 -30.351581 -1.332019 -5.335889 73.209436 -1.814582 -9.444617 -6.637178 -0.260200 -0.000000 -43.253699
-1.773462 16.128711 -0.890082 -3.748766 78.257266 17.358984 -9.235781 -0.892513 -2.968368 -15.205542 4.617269 -50.147077 -1.703758 3.205131 51.849342 3.159627 12.839433 -22.475256 -3.367099 0.000000 -16.073300 11.498745 -0.254767 -5.638148 6.313716 -11.294413 -31.168916 -1.328968 -5.377762 73.641311 -2.049543 -10.808252 -8.110306 -0.061000 -0.000000 -39.786300
-1.685374 16.146479 -0.889261 -4.320216 77.945666 16.849284 -9.249496 -0.883230 -3.042406 -15.109545 4.913951 -49.704477 -1.727816 3.179828 51.628760 3.186681 12.964161 -22.667564 -3.449000 0.000000 -16.161500 11.467507 -0.156431 -5.644367 6.577575 -11.201025 -31.997294 -1.310255 -5.412346 73.939718 -2.233743 -11.799904 -9.411401 0.170000 -0.000000 -36.742000
-1.598394 16.163828 -0.888217 -4.876387 77.648613 16.356434 -9.264722 -0.873590 -3.114734 -15.002688 5.189005 -49.267604 -1.748367 3.157102 51.420215 3.213477 13.097568 -22.836342 -3.526800 0.000000 -16.216900 11.430501 -0.058900 -5.645123 6.849890 -11.102576 -32.834216 -1.278163 -5.439426 74.103669 -2.358395 -12.406520 -10.476477 0.388100 0.000000 -34.379900
-1.512331 16.180752 -0.886831 -5.416841 77.369515 15.882785 -9.280881 -0.863941 -3.185262 -14.886382 5.440052 -48.837912 -1.765705 3.136841 51.225048 3.241126 13.242269 -22.990816 -3.603500 0.000001 -16.263100 11.388169 0.037395 -5.640442 7.130875 -10.997787 -33.680573 -1.234673 -5.459279 74.138138 -2.420172 -12.638473 -11.276112 0.559700 -0.000000 -32.800900
